<svg width="900" height="260" viewBox="0 0 900 260" xmlns="http://www.w3.org/2000/svg">
  <defs>
    <linearGradient id="edge" x1="0" y1="0" x2="1" y2="1">
      <stop offset="0" stop-color="#ff46d6"/>
      <stop offset="1" stop-color="#5bf2ff"/>
    </linearGradient>
    <linearGradient id="glass" x1="0" y1="0" x2="1" y2="0">
      <stop offset="0" stop-color="#141024"/>
      <stop offset="1" stop-color="#0c0a18"/>
    </linearGradient>
    <filter id="glow" x="-50%" y="-50%" width="200%" height="200%">
      <feGaussianBlur stdDeviation="4" result="blur"/>
      <feMerge>
        <feMergeNode in="blur"/>
        <feMergeNode in="SourceGraphic"/>
      </feMerge>
    </filter>
  </defs>

  <rect width="900" height="260" rx="22" ry="22" fill="url(#glass)"/>
  <rect x="10" y="10" width="880" height="240" rx="18" ry="18" fill="none" stroke="url(#edge)" stroke-width="2" filter="url(#glow)"/>

  <text x="36" y="56" font-family="Consolas, monospace" font-size="14" fill="#5bf2ff">CYBERBANK ID</text>
  <text x="36" y="92" font-family="Segoe UI, Arial Black, sans-serif" font-size="28" fill="#ff46d6">MUZZYEXTRE</text>
  <text x="36" y="122" font-family="Consolas, monospace" font-size="13" fill="#d8d0ff">ROLE: VIBE CODER</text>
  <text x="36" y="146" font-family="Consolas, monospace" font-size="13" fill="#d8d0ff">HANDLE: PINK PANTHER</text>
  <text x="36" y="170" font-family="Consolas, monospace" font-size="13" fill="#d8d0ff">CLEARANCE: CYBERBANK OPS</text>
  <text x="36" y="194" font-family="Consolas, monospace" font-size="13" fill="#5bf2ff">STATUS: ONLINE</text>

  <g transform="translate(690 40)">
    <path d="M20 0 L70 8 L95 40 L85 86 L52 106 L10 86 L-6 40 L8 8 Z" fill="none" stroke="url(#edge)" stroke-width="3" filter="url(#glow)"/>
    <circle cx="20" cy="48" r="5" fill="#ff46d6"/>
    <circle cx="62" cy="48" r="5" fill="#5bf2ff"/>
    <path d="M22 70 Q41 84 60 70" fill="none" stroke="#f0e6ff" stroke-width="3" opacity="0.8"/>
  </g>

  <rect x="36" y="212" width="120" height="26" rx="6" ry="6" fill="#0b0916" stroke="#ff46d6"/>
  <text x="48" y="230" font-family="Consolas, monospace" font-size="11" fill="#ff46d6">ACCESS: GRANTED</text>
</svg>
